name D:\school\WTK\thesis\model\3dpredictsim\Results\Batchsim_tmt_linear\Pog_s1_tmt_bCst_d00_k250_ig24_pas.mot
datacolumns 128
datarows 4
range 0.00000000 0.03393233
endheader
time	pelvis_tilt	pelvis_list	pelvis_rotation	pelvis_tx	pelvis_ty	pelvis_tz	hip_flexion_l	hip_adduction_l	hip_rotation_l	hip_flexion_r	hip_adduction_r	hip_rotation_r	knee_angle_l	knee_angle_r	ankle_angle_l	ankle_angle_r	subtalar_angle_l	subtalar_angle_r	tmt_angle_l	tmt_angle_r	mtp_angle_l	mtp_angle_r	lumbar_extension	lumbar_bending	lumbar_rotation	arm_flex_l	arm_add_l	arm_rot_l	arm_flex_r	arm_add_r	arm_rot_r	elbow_flex_l	elbow_flex_r	pro_sup_l	pro_sup_r	glut_med1_l/activation	glut_med2_l/activation	glut_med3_l/activation	glut_min1_l/activation	glut_min2_l/activation	glut_min3_l/activation	semimem_l/activation	semiten_l/activation	bifemlh_l/activation	bifemsh_l/activation	sar_l/activation	add_long_l/activation	add_brev_l/activation	add_mag1_l/activation	add_mag2_l/activation	add_mag3_l/activation	tfl_l/activation	pect_l/activation	grac_l/activation	glut_max1_l/activation	glut_max2_l/activation	glut_max3_l/activation	iliacus_l/activation	psoas_l/activation	quad_fem_l/activation	gem_l/activation	peri_l/activation	rect_fem_l/activation	vas_med_l/activation	vas_int_l/activation	vas_lat_l/activation	med_gas_l/activation	lat_gas_l/activation	soleus_l/activation	tib_post_l/activation	flex_dig_l/activation	flex_hal_l/activation	tib_ant_l/activation	per_brev_l/activation	per_long_l/activation	per_tert_l/activation	ext_dig_l/activation	ext_hal_l/activation	ercspn_l/activation	intobl_l/activation	extobl_l/activation	glut_med1_r/activation	glut_med2_r/activation	glut_med3_r/activation	glut_min1_r/activation	glut_min2_r/activation	glut_min3_r/activation	semimem_r/activation	semiten_r/activation	bifemlh_r/activation	bifemsh_r/activation	sar_r/activation	add_long_r/activation	add_brev_r/activation	add_mag1_r/activation	add_mag2_r/activation	add_mag3_r/activation	tfl_r/activation	pect_r/activation	grac_r/activation	glut_max1_r/activation	glut_max2_r/activation	glut_max3_r/activation	iliacus_r/activation	psoas_r/activation	quad_fem_r/activation	gem_r/activation	peri_r/activation	rect_fem_r/activation	vas_med_r/activation	vas_int_r/activation	vas_lat_r/activation	med_gas_r/activation	lat_gas_r/activation	soleus_r/activation	tib_post_r/activation	flex_dig_r/activation	flex_hal_r/activation	tib_ant_r/activation	per_brev_r/activation	per_long_r/activation	per_tert_r/activation	ext_dig_r/activation	ext_hal_r/activation	ercspn_r/activation	intobl_r/activation	extobl_r/activation	
          0.00000000	         -2.92043734	         -2.44480352	          6.77539969	          0.00000000	          0.85486582	         -0.00458578	        -17.96660510	         -2.03020791	          9.16703428	         32.09094283	          3.31138261	         -2.69170440	        -10.16368485	        -14.89575737	         -1.47648251	          6.95924367	         12.78338769	         -3.06133773	          3.86039505	          0.12488730	         21.37089779	         -0.08226418	         -2.35736982	          1.34470507	         -2.03229733	          7.69239003	        -13.49267481	         17.92295904	        -11.11680063	        -13.61106035	          6.86526293	         43.93967427	         14.79208834	         86.51662706	         86.51662706	          0.22652307	          0.09038005	          0.05000001	          0.26851661	          0.19201401	          0.09976576	          0.05000060	          0.05000005	          0.05000004	          0.06101112	          0.10238967	          0.12605902	          0.24910848	          0.05418065	          0.05000084	          0.05000016	          0.29934094	          0.07137116	          0.05000045	          0.05000020	          0.05000014	          0.05000012	          0.36432157	          0.58507009	          0.05000002	          0.05000015	          0.07062802	          0.21494593	          0.05000069	          0.07627446	          0.13989896	          0.26422669	          0.35539609	          0.24716129	          0.22146739	          0.26125120	          0.31225341	          0.05000000	          0.07520412	          0.14549086	          0.05000001	          0.05000000	          0.05000002	          0.06562382	          0.05403585	          0.07062812	          0.05942563	          0.05942562	          0.05000002	          0.05942564	          0.05942564	          0.05000505	          0.11252523	          0.05942567	          0.26642133	          0.05000059	          0.05000005	          0.17063561	          0.34121056	          0.30361542	          0.21110380	          0.10053893	          0.05000003	          0.06576477	          0.15661775	          0.05000005	          0.05000009	          0.16570265	          0.07062816	          0.07062831	          0.59741225	          0.35567119	          0.16060749	          0.05324552	          0.11445078	          0.12713506	          0.10649023	          0.06827430	          0.07034058	          0.07062796	          0.07062814	          0.05000012	          0.05000016	          0.57800270	          0.34302711	          0.20345843	          0.24022515	          0.57359365	          0.36335223	          0.05942562	          0.08051032	          0.07283228	
          0.01131078	         -2.90507777	         -2.57421745	          6.98271176	          0.01768978	          0.85372282	         -0.00431790	        -17.49283285	         -2.32189597	          8.90918838	         31.43499743	          3.83441596	         -2.45426221	        -12.77773527	        -15.42458376	         -2.60923851	          6.21403050	         13.95815229	         -3.54440524	          3.61753130	         -0.00094446	         22.55108962	         -0.09544134	         -2.11552131	          1.61139663	         -2.13140723	          7.32948448	        -13.52885889	         18.06903894	        -12.32141825	        -13.60016472	          6.67761663	         45.21215632	         14.75901267	         86.51662706	         86.51662706	          0.19059370	          0.07604466	          0.05942565	          0.22592655	          0.16155822	          0.08394168	          0.05000045	          0.05000005	          0.05000015	          0.05133400	          0.08614942	          0.20909223	          0.32191786	          0.28042997	          0.08575235	          0.12691990	          0.25186177	          0.06005089	          0.05000032	          0.05942592	          0.05942590	          0.05942589	          0.30653564	          0.51485809	          0.05942568	          0.05942576	          0.05942560	          0.18085283	          0.11857392	          0.11857396	          0.11770931	          0.22231705	          0.29902585	          0.20795843	          0.18633991	          0.21981354	          0.26272615	          0.05261434	          0.06327582	          0.12241421	          0.05000002	          0.05000014	          0.05000009	          0.08979361	          0.07060951	          0.05942563	          0.05000000	          0.05000000	          0.10579387	          0.05000000	          0.05000000	          0.05000001	          0.09467735	          0.05000006	          0.22416360	          0.05000002	          0.05942626	          0.14357071	          0.32260879	          0.41329140	          0.30021270	          0.13317623	          0.05000006	          0.08394259	          0.17911178	          0.05252628	          0.12523600	          0.17531778	          0.05942567	          0.05942581	          0.68662233	          0.29925732	          0.13513316	          0.05942566	          0.20914979	          0.22864609	          0.18911425	          0.05942564	          0.05942567	          0.05942563	          0.05942564	          0.07062980	          0.07062810	          0.59246623	          0.45840749	          0.25785312	          0.20212248	          0.59520873	          0.30572006	          0.05000000	          0.06774038	          0.06128017	
          0.02262155	         -2.88383900	         -2.70428738	          7.15231311	          0.03558034	          0.85241826	         -0.00406831	        -16.90654364	         -2.58449938	          8.63257839	         30.54124827	          4.23430077	         -2.16641149	        -15.57274348	        -15.88493790	         -3.81153687	          5.70602943	         15.02353527	         -4.05678005	          3.17226017	         -0.10712826	         23.47312410	         -0.19445918	         -1.85831432	          1.87789035	         -2.22004162	          6.87983793	        -13.56746191	         18.12539637	        -13.48171383	        -13.59933425	          6.58618420	         46.46302538	         14.67736022	         86.51662706	         86.51662706	          0.26724642	          0.06398304	          0.05000001	          0.34155103	          0.13593310	          0.07062750	          0.05000039	          0.05000002	          0.05000001	          0.05000003	          0.07248710	          0.17592765	          0.27085772	          0.23595030	          0.07215100	          0.10678885	          0.24491440	          0.10438464	          0.05000006	          0.05000033	          0.05000027	          0.05000023	          0.25791529	          0.46909221	          0.05000003	          0.05000013	          0.05000001	          0.15216732	          0.09976662	          0.09976665	          0.09903915	          0.18705480	          0.25159663	          0.17497364	          0.15678408	          0.18494840	          0.22105453	          0.17927868	          0.15466363	          0.15810132	          0.29133551	          0.21274218	          0.14133045	          0.10006200	          0.05940996	          0.05000001	          0.33944726	          0.35512884	          0.37845560	          0.45839679	          0.35504468	          0.26497826	          0.10225584	          0.11630541	          0.18860847	          0.08394244	          0.05000059	          0.12079861	          0.27143903	          0.34773827	          0.25259531	          0.16098782	          0.05000006	          0.07062841	          0.15070256	          0.21251452	          0.18939292	          0.15979059	          0.05000008	          0.05000015	          0.57771549	          0.25179141	          0.25805463	          0.05000002	          0.17597606	          0.19238008	          0.15911842	          0.05000002	          0.05000004	          0.05000000	          0.05000000	          0.05942705	          0.05942563	          0.63411548	          0.45706107	          0.21695443	          0.54512316	          0.67121096	          0.36602227	          0.07814127	          0.08394252	          0.05156038	
          0.03393233	         -2.85919972	         -2.82052332	          7.27867967	          0.05338008	          0.85100056	         -0.00378213	        -16.18416078	         -2.80751953	          8.34630787	         29.56366562	          4.59998878	         -1.88655765	        -18.54788400	        -16.27200657	         -4.79439494	          5.40893845	         15.97255975	         -4.60273568	          2.33971739	         -0.05824600	         23.66103172	         -0.20165948	         -1.61485590	          2.12862682	         -2.29596376	          6.40109483	        -13.61568273	         18.12587223	        -14.53483520	        -13.60145648	          6.59791996	         47.65117446	         14.51231502	         86.51662706	         86.51662706	          0.22485782	          0.05383458	          0.05000022	          0.28737681	          0.11437244	          0.05942518	          0.08711164	          0.05942562	          0.05942568	          0.05000034	          0.06098980	          0.17833559	          0.25538279	          0.23916600	          0.06071056	          0.10191503	          0.20606801	          0.08782803	          0.05942576	          0.05000163	          0.05000106	          0.05000081	          0.21700672	          0.39468837	          0.05297784	          0.05000281	          0.05000019	          0.12803169	          0.08394240	          0.08394242	          0.08333031	          0.15738558	          0.21169028	          0.14722064	          0.13191619	          0.15561332	          0.18599256	          0.22124553	          0.14214331	          0.13302455	          0.24512610	          0.25672922	          0.11891389	          0.12731115	          0.05000000	          0.05000000	          0.46737809	          0.52286336	          0.55345641	          0.39314933	          0.35971529	          0.47830801	          0.08900426	          0.12158661	          0.15869283	          0.07062815	          0.05000007	          0.10163846	          0.22838543	          0.29258269	          0.24544543	          0.18545018	          0.05000005	          0.05942606	          0.12679934	          0.30978110	          0.23958846	          0.18577363	          0.05000002	          0.05000002	          0.48608263	          0.21185417	          0.29280235	          0.05000000	          0.25198531	          0.27730907	          0.22359676	          0.05000000	          0.05000001	          0.05000000	          0.05000000	          0.05000120	          0.05000005	          0.77395025	          0.38456550	          0.18254276	          0.59280470	          0.67367508	          0.51515227	          0.10148530	          0.07062819	          0.05000000	
